<svg width="1920" height="1080" viewBox="0 0 1920 1080" fill="none" xmlns="http://www.w3.org/2000/svg">
  <defs>
    <linearGradient id="bg" x1="0" y1="0" x2="1920" y2="1080" gradientUnits="userSpaceOnUse">
      <stop offset="0" stop-color="#0F2C24"/>
      <stop offset="0.52" stop-color="#163D31"/>
      <stop offset="1" stop-color="#0E231C"/>
    </linearGradient>
    <radialGradient id="glowCenter" cx="0" cy="0" r="1" gradientUnits="userSpaceOnUse" gradientTransform="translate(960 500) rotate(90) scale(520 860)">
      <stop offset="0" stop-color="#2E6E58" stop-opacity="0.4"/>
      <stop offset="0.65" stop-color="#2E6E58" stop-opacity="0.12"/>
      <stop offset="1" stop-color="#2E6E58" stop-opacity="0"/>
    </radialGradient>
    <radialGradient id="screenReflection" cx="0" cy="0" r="1" gradientUnits="userSpaceOnUse" gradientTransform="translate(820 180) rotate(21) scale(760 180)">
      <stop offset="0" stop-color="#D6FFF3" stop-opacity="0.18"/>
      <stop offset="1" stop-color="#D6FFF3" stop-opacity="0"/>
    </radialGradient>
    <filter id="softBlur" x="-20%" y="-20%" width="140%" height="140%">
      <feGaussianBlur stdDeviation="18"/>
    </filter>
    <filter id="shadow" x="-20%" y="-20%" width="140%" height="140%">
      <feDropShadow dx="0" dy="18" stdDeviation="26" flood-color="#06110D" flood-opacity="0.35"/>
    </filter>
    <pattern id="grid" width="96" height="96" patternUnits="userSpaceOnUse">
      <path d="M96 0H0V96" stroke="#C9FFF0" stroke-opacity="0.06" stroke-width="1"/>
    </pattern>
  </defs>

  <rect width="1920" height="1080" fill="url(#bg)"/>
  <rect width="1920" height="1080" fill="url(#grid)"/>
  <rect width="1920" height="1080" fill="url(#glowCenter)"/>

  <g opacity="0.55" filter="url(#softBlur)">
    <circle cx="306" cy="884" r="178" fill="#8EF0C9" fill-opacity="0.08"/>
    <circle cx="1668" cy="174" r="210" fill="#B4FFF2" fill-opacity="0.06"/>
  </g>

  <g filter="url(#shadow)">
    <rect x="88" y="72" width="1744" height="936" rx="44" fill="#102A22" fill-opacity="0.92" stroke="#9DEACC" stroke-opacity="0.16" stroke-width="3"/>
    <rect x="118" y="102" width="1684" height="876" rx="32" fill="url(#screenReflection)"/>
    <rect x="118" y="102" width="1684" height="876" rx="32" stroke="#D8FFF1" stroke-opacity="0.08" stroke-width="2"/>
  </g>

  <g opacity="0.6">
    <rect x="154" y="138" width="1612" height="8" rx="4" fill="#D8FFF1" fill-opacity="0.06"/>
    <rect x="154" y="934" width="1612" height="8" rx="4" fill="#D8FFF1" fill-opacity="0.05"/>
  </g>

  <g opacity="0.7">
    <circle cx="1668" cy="120" r="8" fill="#B8FFF0" fill-opacity="0.35"/>
    <circle cx="1696" cy="120" r="8" fill="#B8FFF0" fill-opacity="0.18"/>
    <circle cx="1724" cy="120" r="8" fill="#B8FFF0" fill-opacity="0.12"/>
  </g>

  <g opacity="0.22">
    <path d="M250 324C412 281 598 258 770 280" stroke="#E4FFF5" stroke-width="4" stroke-linecap="round"/>
    <path d="M1144 804C1282 770 1434 760 1590 786" stroke="#E4FFF5" stroke-width="4" stroke-linecap="round"/>
    <path d="M1322 284C1426 250 1538 248 1644 274" stroke="#E4FFF5" stroke-width="3" stroke-linecap="round"/>
  </g>
</svg>
